:SAMPLES-PER-SECOND 30
:FULLY-SPECIFIED
:DEGREES
53
root  41.0637 38.8959 0.675259 149.165 87.6358 151.443
RightUpLeg  -24.2696 -1.56294 -1.02573
RightLeg  40.0586 10.6653 0.63671
RightFoot  4.12597 -0.72901 4.8282
RightToes  -9.02219e-009 -1.59028e-015 9.93923e-017
Spine  -1.93196 -3.50492 -9.06951
Spine1  9.18082 -5.53843 4.56218
HEad  -9.50703 2.37758 2.21331
LeftShoulder1  9.93923e-017 0 1.22299e-017
LeftArm  14.7514 6.39403 -79.0163
LeftForeArm  -34.1644 -40.2967 24.4698
LeftHand  0.918455 6.45548 -1.9082
RightShoulder  1.98785e-016 -4.96962e-017 1.55301e-017
RightArm  20.9812 -60.9448 66.4243
RightForeArm  -21.5353 14.5023 0.730357
RightHand  1.34401 -13.0732 -2.27876
LeftUpLeg  1.45644 0.368234 -1.75649
LeftLeg  17.3704 -12.4981 2.93936
LeftFoot  -12.5896 -0.0271657 -1.34024
LeftToes  7.69435e-010 2.06924e-010 1.0715e-010
54
root  42.8967 38.786 0.860743 159.054 87.5034 160.952
RightUpLeg  -25.2451 -1.70759 -1.10779
RightLeg  27.5346 10.8326 0.701142
RightFoot  4.26399 -0.829018 5.42951
RightToes  -9.02219e-009 -1.59028e-015 9.93923e-017
Spine  -2.41879 -4.45413 -9.58422
Spine1  9.0745 -6.51036 5.89043
HEad  -9.54619 3.31805 2.06007
LeftShoulder1  9.93923e-017 0 1.22299e-017
LeftArm  12.7343 0.16267 -76.6569
LeftForeArm  -34.499 -43.7563 26.506
LeftHand  0.921609 6.53682 -0.671102
RightShoulder  1.98785e-016 -4.96962e-017 1.55301e-017
RightArm  28.2109 -66.1161 53.3525
RightForeArm  -23.7729 15.2223 -0.735825
RightHand  1.31199 -12.8583 -2.14709
LeftUpLeg  4.76124 1.36197 -0.222532
LeftLeg  15.9056 -14.0254 2.31401
LeftFoot  -13.491 -0.0415289 -2.15618
LeftToes  7.69435e-010 2.06924e-010 1.0715e-010
55
root  44.7059 38.7276 1.03191 172.215 87.2592 173.417
RightUpLeg  -24.8749 -0.218365 -1.71623
RightLeg  12.0826 9.60875 0.717896
RightFoot  4.8826 -0.844642 5.35118
RightToes  -9.02219e-009 -1.59028e-015 9.93923e-017
Spine  -3.03249 -5.53841 -9.13126
Spine1  9.03603 -7.53483 6.70233
HEad  -9.37071 4.28613 2.03454
LeftShoulder1  9.93923e-017 0 1.22299e-017
LeftArm  10.849 -4.65603 -74.1225
LeftForeArm  -34.9832 -46.0338 27.982
LeftHand  0.90245 6.4585 0.745683
RightShoulder  1.98785e-016 -4.96962e-017 1.55301e-017
RightArm  37.383 -68.8549 39.0966
RightForeArm  -25.5505 15.4224 -1.31972
RightHand  1.32638 -13.0238 -2.07258
LeftUpLeg  7.93893 1.8887 1.40976
LeftLeg  13.6077 -15.1625 1.91104
LeftFoot  -13.2411 -0.0317262 -3.74719
LeftToes  7.69435e-010 2.06924e-010 1.0715e-010
56
root  46.5989 38.5439 1.26349 175.796 87.0708 176.618
RightUpLeg  -24.0235 1.75435 -2.65722
RightLeg  -1.10358 7.58143 0.508848
RightFoot  3.52675 -0.710747 4.86017
RightToes  -9.02219e-009 -1.59028e-015 9.93923e-017
Spine  -3.3111 -6.3398 -9.03401
Spine1  8.94932 -8.35247 7.30904
HEad  -9.50011 4.9374 1.96119
LeftShoulder1  9.93923e-017 0 1.22299e-017
LeftArm  8.91222 -7.81072 -72.1165
LeftForeArm  -35.0718 -47.3965 28.9493
LeftHand  0.874744 6.33096 1.99613
RightShoulder  1.98785e-016 -4.96962e-017 1.55301e-017
RightArm  44.8855 -69.6684 26.9907
RightForeArm  -25.2616 15.0035 -0.876263
RightHand  1.43544 -13.501 -2.93722
LeftUpLeg  11.0699 2.10322 2.67485
LeftLeg  12.3631 -15.7947 1.80767
LeftFoot  -12.4972 0.00494193 -5.48961
LeftToes  7.69435e-010 2.06924e-010 1.0715e-010
57
root  48.5932 38.2468 1.57998 178.949 87.38 179.502
RightUpLeg  -24.639 2.66648 -2.56056
RightLeg  -5.61512 5.85566 0.147076
RightFoot  1.05442 -0.583704 4.72049
RightToes  -9.02219e-009 -1.59028e-015 9.93923e-017
Spine  -3.52086 -6.68603 -9.12214
Spine1  9.07796 -8.86857 8.18067
HEad  -10.0943 5.28247 1.721
LeftShoulder1  9.93923e-017 0 1.22299e-017
LeftArm  6.79198 -9.11146 -70.9481
LeftForeArm  -35.1251 -48.3853 29.6884
LeftHand  0.856654 6.26475 2.98182
RightShoulder  1.98785e-016 -4.96962e-017 1.55301e-017
RightArm  49.1737 -69.3993 19.4907
RightForeArm  -24.001 14.4109 -0.137148
RightHand  1.54034 -13.8473 -3.88916
LeftUpLeg  14.0165 1.66341 3.71632
LeftLeg  12.1297 -15.3257 2.01104
LeftFoot  -11.2113 0.11058 -7.55771
LeftToes  7.69435e-010 2.06924e-010 1.0715e-010
58
root  50.678 37.92 1.95572 -158.732 87.6701 -158.689
RightUpLeg  -26.8579 3.70111 -1.37093
RightLeg  -1.01396 3.68594 -0.365716
RightFoot  1.1859 -0.633357 5.03614
RightToes  -9.02219e-009 -1.59028e-015 9.93923e-017
Spine  -3.97625 -6.83808 -8.24509
Spine1  9.48153 -9.2619 9.16804
HEad  -10.8729 5.52528 1.32862
LeftShoulder1  9.93923e-017 0 1.22299e-017
LeftArm  4.77494 -8.4541 -70.555
LeftForeArm  -35.627 -49.347 30.4052
LeftHand  0.847062 6.24309 3.72306
RightShoulder  1.98785e-016 -4.96962e-017 1.55301e-017
RightArm  50.2961 -68.8344 16.8389
RightForeArm  -23.1912 14.0295 0.338856
RightHand  1.5636 -13.9546 -4.02655
LeftUpLeg  16.4837 -0.226311 5.08642
LeftLeg  12.4316 -13.1159 2.0897
LeftFoot  -9.11208 0.401261 -11.2503
LeftToes  7.69435e-010 2.06924e-010 1.0715e-010
59
root  52.8805 37.5167 2.36943 -133.68 86.6906 -133.835
RightUpLeg  -28.8799 4.72962 0.511476
RightLeg  7.72206 2.11803 -1.14616
RightFoot  4.72353 -0.793557 5.07931
RightToes  -9.02219e-009 -1.59028e-015 9.93923e-017
Spine  -4.0534 -7.10438 -6.35237
Spine1  9.49669 -9.68399 9.80672
HEad  -11.7147 5.60539 0.887922
LeftShoulder1  9.93923e-017 0 1.22299e-017
LeftArm  3.58677 -6.10092 -71.0999
LeftForeArm  -36.0839 -49.7548 30.7106
LeftHand  0.825944 6.15924 4.4331
RightShoulder  1.98785e-016 -4.96962e-017 1.55301e-017
RightArm  47.9201 -68.5584 18.4715
RightForeArm  -22.8588 13.8166 0.571869
RightHand  1.54377 -13.9575 -3.72804
LeftUpLeg  18.0746 -4.98468 6.72194
LeftLeg  15.2595 -8.05946 1.49985
LeftFoot  -5.49206 1.06407 -15.0015
LeftToes  7.69435e-010 2.06924e-010 1.0715e-010
60
root  55.0249 37.1591 2.77904 -125.221 84.4822 -124.665
RightUpLeg  -29.2343 3.95564 3.51233
RightLeg  15.8213 3.17924 -1.6419
RightFoot  7.45868 -0.629793 3.52642
RightToes  -9.02219e-009 -1.59028e-015 9.93923e-017
Spine  -2.7592 -7.29466 -3.97354
Spine1  8.94503 -10.0389 10.3526
HEad  -12.7668 5.11342 0.686887
LeftShoulder1  9.93923e-017 0 1.22299e-017
LeftArm  3.8563 -2.76865 -73.0365
LeftForeArm  -35.2752 -48.4109 29.7096
LeftHand  0.788141 5.99043 5.12632
RightShoulder  1.98785e-016 -4.96962e-017 1.55301e-017
RightArm  39.5227 -68.5649 25.1837
RightForeArm  -21.4876 13.2207 1.09794
RightHand  1.5296 -13.9481 -3.53646
LeftUpLeg  17.8808 -7.87932 9.7752
LeftLeg  21.5925 -4.77297 1.65942
LeftFoot  2.25096 1.91273 -14.0208
LeftToes  7.69435e-010 2.06924e-010 1.0715e-010
61
root  56.8966 36.9392 3.15619 -124.83 81.9757 -123.053
RightUpLeg  -28.3593 1.89352 7.02665
RightLeg  22.2004 5.14692 -1.84697
RightFoot  5.80577 -0.104662 0.552337
RightToes  -9.02219e-009 -1.59028e-015 9.93923e-017
Spine  -0.460444 -7.23052 -1.56704
Spine1  8.55424 -10.0835 11.2914
HEad  -13.7834 3.76162 1.02931
LeftShoulder1  9.93923e-017 0 1.22299e-017
LeftArm  5.92712 0.816823 -76.4467
LeftForeArm  -33.1677 -44.3801 26.9892
LeftHand  0.749105 5.78491 5.17831
RightShoulder  1.98785e-016 -4.96962e-017 1.55301e-017
RightArm  23.1151 -67.7867 38.0411
RightForeArm  -17.7325 11.7142 2.23108
RightHand  1.5111 -13.956 -3.25032
LeftUpLeg  14.8527 -7.71003 13.6258
LeftLeg  30.995 -4.86368 3.47826
LeftFoot  13.0038 1.92661 -8.31115
LeftToes  7.69435e-010 2.06924e-010 1.0715e-010
62
root  58.5548 36.852 3.50685 -126.406 80.0821 -123.762
RightUpLeg  -26.9237 0.865669 9.42517
RightLeg  26.7053 5.21268 -2.39058
RightFoot  1.4968 0.239809 -1.87833
RightToes  -9.02219e-009 -1.59028e-015 9.93923e-017
Spine  1.19965 -6.92323 0.231417
Spine1  8.66332 -9.70077 12.2581
HEad  -13.9765 1.84618 1.71767
LeftShoulder1  9.93923e-017 0 1.22299e-017
LeftArm  10.4139 4.51851 -80.5844
LeftForeArm  -32.0642 -37.7383 23.2087
LeftHand  0.699843 5.42802 4.04013
RightShoulder  1.98785e-016 -4.96962e-017 1.55301e-017
RightArm  3.49986 -64.6494 53.8931
RightForeArm  -12.5296 9.72325 3.37155
RightHand  1.47827 -13.9569 -2.76307
LeftUpLeg  9.39848 -8.30778 15.8028
LeftLeg  41.6837 -4.99213 5.89463
LeftFoot  20.1937 1.17483 -3.60251
LeftToes  7.69435e-010 2.06924e-010 1.0715e-010
63
root  60.2277 37.0269 3.82489 -129.298 79.3138 -126.34
RightUpLeg  -24.3653 1.24982 10.4398
RightLeg  28.2263 3.99989 -3.2878
RightFoot  -1.98427 0.277791 -2.80959
RightToes  -9.02219e-009 -1.59028e-015 9.93923e-017
Spine  1.38319 -6.37507 1.05968
Spine1  8.84527 -8.9926 12.4749
HEad  -12.9178 0.0113452 2.11296
LeftShoulder1  9.93923e-017 0 1.22299e-017
LeftArm  20.6437 8.86244 -84.4827
LeftForeArm  -37.6003 -29.7803 20.0433
LeftHand  0.636034 4.82934 2.05639
RightShoulder  1.98785e-016 -4.96962e-017 1.55301e-017
RightArm  -10.4505 -58.841 67.0697
RightForeArm  -8.53589 8.665 3.75236
RightHand  1.45592 -13.8095 -2.68569
LeftUpLeg  3.02967 -8.86486 15.7837
LeftLeg  50.9576 -5.98642 7.54327
LeftFoot  20.7578 0.655129 -1.89363
LeftToes  7.69435e-010 2.06924e-010 1.0715e-010
64
root  61.9819 37.4785 4.0684 -132.463 79.4845 -129.352
RightUpLeg  -20.4975 2.53037 10.574
RightLeg  27.0374 2.47118 -3.95256
RightFoot  -3.91779 0.239999 -2.97542
RightToes  -9.02219e-009 -1.59028e-015 9.93923e-017
Spine  0.69363 -5.65155 1.62427
Spine1  9.00086 -8.00838 11.6606
HEad  -11.1955 -1.4531 1.99085
LeftShoulder1  9.93923e-017 0 1.22299e-017
LeftArm  20.6895 13.8115 -86.8307
LeftForeArm  -33.6752 -22.9155 10.7401
LeftHand  0.622228 4.42212 -0.0758875
RightShoulder  1.98785e-016 -4.96962e-017 1.55301e-017
RightArm  -14.0423 -51.4021 75.9255
RightForeArm  -9.05469 10.0238 2.88219
RightHand  1.46859 -13.4494 -3.57302
LeftUpLeg  -3.03868 -9.17267 13.9742
LeftLeg  57.3476 -7.71268 7.14478
LeftFoot  18.2188 0.625341 -2.02938
LeftToes  7.69435e-010 2.06924e-010 1.0715e-010
